<?xml version="1.0" encoding="UTF-8"?>
<svg viewBox="135 135 220 220" fill="none" xmlns="http://www.w3.org/2000/svg">
  <g stroke="none" fill="#ffffff" fill-rule="evenodd">
    <path d="M160 24C84.8893 24 24 84.8893 24 160V352C24 427.111 84.8893 488 160 488H352C427.111 488 488 427.111 488 352V160C488 84.8893 427.111 24 352 24H160ZM40 160C40 93.7258 93.7258 40 160 40H352C418.274 40 472 93.7258 472 160V352C472 418.274 418.274 472 352 472H160C93.7258 472 40 418.274 40 352V160ZM331.231 224.395C335.431 223.024 339.948 225.317 341.319 229.517L352.759 264.551C357.824 280.064 346.264 296 329.944 296H288C283.582 296 280 292.418 280 288C280 283.582 283.582 280 288 280H329.944C335.384 280 339.238 274.688 337.549 269.517L326.109 234.483C324.738 230.283 327.031 225.767 331.231 224.395ZM248 296C252.418 296 256 292.418 256 288C256 283.582 252.418 280 248 280C243.582 280 240 283.582 240 288C240 292.418 243.582 296 248 296ZM172 326C172 313.85 181.85 304 194 304H204C208.418 304 212 307.582 212 312C212 316.418 208.418 320 204 320H194C190.686 320 188 322.686 188 326V328C188 330.209 189.791 332 192 332H200C204.418 332 208 335.582 208 340C208 344.418 204.418 348 200 348H192H168C163.582 348 160 344.418 160 340C160 335.582 163.582 332 168 332H172.4C172.138 330.708 172 329.37 172 328V326ZM192 144C196.418 144 200 147.582 200 152V276C200 280.418 196.418 284 192 284C187.582 284 184 280.418 184 276V152C184 147.582 187.582 144 192 144Z"/>
  </g>
</svg>
