<?xml version="1.0" encoding="UTF-8" standalone="no"?>
<svg id="Layer_1" data-name="Layer 1" xmlns="http://www.w3.org/2000/svg" viewBox="0 0 512 512">
  <g stroke="none" fill="#ffffff">
    <path d="M416,170.667H96A53.333,53.333,0,0,1,96,64H416a53.333,53.333,0,0,1,0,106.667Zm-320-64A10.667,10.667,0,1,0,96,128H416a10.667,10.667,0,1,0,0-21.333Z"/>
    <path d="M416,309.333H96a53.333,53.333,0,1,1,0-106.667H416a53.333,53.333,0,0,1,0,106.667Zm-320-64a10.667,10.667,0,0,0,0,21.333H416a10.667,10.667,0,0,0,0-21.333Z"/>
    <path d="M416,448H96a53.333,53.333,0,0,1,0-106.667H416A53.333,53.333,0,0,1,416,448ZM96,384a10.667,10.667,0,1,0,0,21.333H416A10.667,10.667,0,1,0,416,384Z"/>
  </g>
</svg>