<?xml version="1.0" encoding="UTF-8"?>
<svg xmlns="http://www.w3.org/2000/svg" viewBox="0 0 64 64">
  <g style="fill: #ffffff">
    <path d="M15,42l.9-10.8a.1.1,0,0,1,.2,0L17,42h3V22l5-4,3-4-2-2-3.12,3.88L20,18H12.544A3,3,0,0,0,10.1,19.256L8,24l.5,6H11V25l1-3V42Z"/>
    <circle cx="15.951" cy="15" r="3"/>
    <circle cx="46" cy="16" r="2"/>
    <path d="M38.069,17A7.994,7.994,0,0,0,45,23.931V23h2v.931A7.994,7.994,0,0,0,53.931,17H53V15h.931A7.994,7.994,0,0,0,47,8.069V9H45V8.069A7.994,7.994,0,0,0,38.069,15H39v2ZM46,11a5,5,0,1,1-5,5A5,5,0,0,1,46,11Z"/>
    <path d="M2,30H6.493l-.486-5.834a2.011,2.011,0,0,1,.164-.977l2.1-4.744a1.922,1.922,0,0,1,.2-.352,5,5,0,0,1,2.643-1.876A4.936,4.936,0,0,1,10.951,15a4.993,4.993,0,0,1,9.983-.171l.55-.405,2.957-3.677a2,2,0,0,1,2.973-.161l2,2A2,2,0,0,1,29.6,15.2l-3,4a2.033,2.033,0,0,1-.35.362L22,22.961V30H62V2H2ZM34,15h1.05A11,11,0,0,1,45,5.05V4h2V5.05A11,11,0,0,1,56.95,15H58v2H56.95A11,11,0,0,1,47,26.95V28H45V26.95A11,11,0,0,1,35.05,17H34Z"/>
    <circle cx="58" cy="51.5" r="2.5"/>
    <path d="M60,54H56a2,2,0,0,0-2,2v6h8V56A2,2,0,0,0,60,54Z"/>
    <circle cx="45" cy="51.5" r="2.5"/>
    <path d="M41,56v6h8V56a2,2,0,0,0-2-2H43A2,2,0,0,0,41,56Z"/>
    <circle cx="32" cy="51.5" r="2.5"/>
    <path d="M28,56v6h8V56a2,2,0,0,0-2-2H30A2,2,0,0,0,28,56Z"/>
    <circle cx="19" cy="51.5" r="2.5"/>
    <path d="M15,56v6h8V56a2,2,0,0,0-2-2H17A2,2,0,0,0,15,56Z"/>
    <circle cx="6" cy="51.5" r="2.5"/>
    <path d="M10,56a2,2,0,0,0-2-2H4a2,2,0,0,0-2,2v6h8Z"/>
  </g>
</svg>
