<?xml version="1.0" encoding="UTF-8" standalone="no"?>
<svg xmlns="http://www.w3.org/2000/svg" viewBox="0 0 17 17">
  <g style="fill: #ffffff">
    <path d="m 1.0581909,0.52916669 c -0.29773751,-2e-5 -0.5291556,0.23661141 -0.5291556,0.52917311 v 2.646875 c 0,0.2977317 0.23968801,0.5291732 0.5291556,0.5291732 h 3.4400717 c 0.070099,-3.969e-4 0.1376888,0.0268 0.1875883,0.076 L 5.2920061,4.9160418 V 1.0583798 C 5.2920259,0.7658181 5.0595278,0.52920669 4.7618103,0.52920669 Z M 1.8519343,2.1166757 c 0.1461288,0 0.2645879,0.1184607 0.2645879,0.2645815 0,0.1461209 -0.1184591,0.2645915 -0.2645879,0.2645915 -0.1461187,0 -0.2645778,-0.1184706 -0.2645778,-0.2645915 0,-0.1461208 0.1184591,-0.2645815 0.2645778,-0.2645815 z m 1.0583313,0 c 0.1461189,0 0.2645779,0.1184607 0.2645779,0.2645815 0,0.1461209 -0.118459,0.2645915 -0.2645779,0.2645915 -0.1461288,0 -0.2645878,-0.1184706 -0.2645878,-0.2645915 0,-0.1461208 0.118459,-0.2645815 0.2645878,-0.2645815 z m 1.0583214,0 c 0.1461186,0 0.2645777,0.1184607 0.2645777,0.2645815 0,0.1461209 -0.1184591,0.2645915 -0.2645777,0.2645915 -0.146129,0 -0.264578,-0.1184706 -0.264578,-0.2645915 0,-0.1461208 0.118449,-0.2645815 0.264578,-0.2645815 z M 5.8211715,4.58476 V 5.5567954 C 5.8210416,5.7920468 5.5368938,5.9097873 5.3700352,5.7438665 l -0.046,-0.0455 c -0.0205,0.1255206 -0.0315,0.2548013 -0.0315,0.386542 v 0.2645916 l 0.2661279,5.027e-4 c 0.353647,-2.01e-5 0.7109041,-0.2593315 0.8015033,-0.5973834 0.0294,-0.1121006 0.128619,-0.192401 0.244418,-0.1974011 0.0439,-0.00201 0.087199,0.008 0.1266089,0.0274 0.3075174,0.1503408 0.594545,0.2387415 0.9436022,0.2387415 0.3325372,0 0.6340349,-0.0883 0.9415421,-0.2387415 0.1500988,-0.0741 0.3304974,0.008 0.373097,0.1700111 0.092299,0.3443919 0.4456365,0.5973934 0.7994333,0.5968732 l 0.2656081,-5.291e-4 5.29e-4,-0.2640716 C 10.056006,4.7611441 8.9902944,3.7041781 7.6747958,3.7041714 6.9227625,3.7041847 6.2602478,4.0471968 5.8211715,4.58476 Z m 8.8846575,0.1782809 c -0.154159,0.003 -0.264578,0.1169306 -0.264578,0.2635514 v 0.5291731 c 0,0.176331 0.132329,0.2648716 0.264578,0.2651016 0.132249,-2.3e-4 0.264577,-0.0888 0.264577,-0.2651016 V 5.0265923 c 0,-0.1466208 -0.110409,-0.2606815 -0.264577,-0.2635514 z m -1.620557,0.8712649 0.375167,0.3731123 c 0.261058,0.2427614 0.616555,-0.1230309 0.375167,-0.3731123 l -0.375167,-0.375172 c -0.0498,-0.0512 -0.114079,-0.077 -0.185519,-0.076995 -0.239178,-0.00201 -0.354767,0.2883865 -0.189648,0.452167 z m 2.865946,-0.3751621 -0.375167,0.375172 c -0.241388,0.2500915 0.114109,0.6158737 0.375167,0.3731121 l 0.375167,-0.3731121 c 0.165119,-0.1637809 0.0495,-0.4540124 -0.189648,-0.4521674 -0.0714,-5e-6 -0.135709,0.025794 -0.185519,0.076995 z M 6.7559938,6.170719 C 6.5747652,6.5116509 6.2120483,6.7724125 5.8211715,6.8518128 v 0.5730931 c 0,1.0076058 0.8218134,1.8355606 1.8536147,1.8355606 1.0215817,0 1.8510349,-0.8155446 1.8510349,-1.8355606 V 6.8518128 C 9.1295143,6.7672123 8.7860871,6.521821 8.5915186,6.1712289 8.2947311,6.2936497 7.9643039,6.3505499 7.6747862,6.3505499 c -0.358877,0 -0.6379945,-0.0734 -0.9187924,-0.1798309 z M 5.2930459,6.878683 c -0.2953774,0 -0.5291656,0.2399914 -0.5291656,0.5291732 0,0.2891716 0.2337882,0.5296829 0.5291656,0.5296829 h 0.0558 c -0.0369,-0.165491 -0.0548,-0.3362518 -0.0548,-0.5126332 z m 4.7619401,0 v 0.5462229 c 0,0.1761213 -0.0197,0.3469621 -0.056299,0.5121231 h 0.055799 c 0.295368,0 0.529687,-0.2400012 0.529687,-0.5291728 0,-0.2890119 -0.234039,-0.5288732 -0.529167,-0.5291732 z m 4.679782,0.4604427 -0.479556,1.7921501 c 0,0 -0.0565,0.1897312 -0.151408,0.4149624 -0.0645,0.1530209 -0.151699,0.3312519 -0.258378,0.4893828 0.0121,0.0107 0.025,0.0188 0.0367,0.0305 l 1.122921,1.122926 c 0.0277,0.0277 0.0507,0.0585 0.0734,0.0889 0.493465,-0.0524 0.890022,-0.367052 1.015431,-0.835094 L 16.367245,9.4211973 C 16.518934,8.855084 16.190246,8.2775608 15.619491,8.12463 l -0.032,0.1214405 c 0.0428,0.0523 0.0914,0.1238407 0.147279,0.2511516 0.105699,0.2412413 0.172669,0.6011534 0.0548,1.0412858 -0.0912,0.3411522 -0.603305,0.2042115 -0.512106,-0.1369406 0.0876,-0.3265519 0.0308,-0.5574832 -0.0227,-0.679554 -0.0643,-0.1466508 -0.134869,-0.2113612 -0.134869,-0.2113612 -0.0751,-0.0663 -0.105699,-0.1690109 -0.0801,-0.2656117 l 0.206698,-0.768954 c 0.0391,-0.1460008 -0.0523,-0.2882318 -0.187578,-0.3245318 -0.0338,-0.009 -0.0686,-0.010001 -0.102389,-0.00611 -0.10112,0.013291 -0.192459,0.08419 -0.221759,0.1936811 z M 6.8794929,9.6552789 v 0.5519031 l 0.6397545,0.640794 H 7.8298149 C 8.0424233,10.635165 8.2546915,10.422634 8.4669798,10.209772 L 8.4664697,9.6557889 c -0.2485579,0.087401 -0.5126358,0.1348807 -0.7916835,0.1348807 -0.2791077,0 -0.5463055,-0.0476 -0.7952933,-0.1353907 z M 2.9102656,10.054741 v 0.792715 h 1.587997 v -0.792715 z m 10.2049764,0.402573 -1.443828,1.128616 c -0.0971,0.075 -0.232948,0.0736 -0.328148,-0.004 -0.186058,-0.150081 -0.694474,-0.458702 -0.982362,-0.597383 L 9.9588674,10.796446 8.9393058,12.070273 c -0.098099,0.124401 -0.2827777,0.135241 -0.3948067,0.0233 l -0.073899,-0.0739 -0.249078,0.244431 0.5084959,3.57086 c 0.012099,0.0832 -0.0166,0.167241 -0.076499,0.226342 l -0.079099,0.0775 2.538329,0.001 c 0.151149,0 0.263548,-0.123231 0.263548,-0.265611 v -1.073327 c -0.224598,-0.086 -0.460556,-0.242671 -0.732774,-0.517802 -0.249368,-0.255232 0.127539,-0.620234 0.375177,-0.374663 0.238138,0.238142 0.477606,0.424593 0.725524,0.437193 0.260968,0.0132 0.524766,-0.139521 0.815453,-0.429953 L 14.6231,11.943662 c 0.113989,-0.11835 0.103199,-0.283341 0.009,-0.377242 l -1.12499,-1.125006 c -0.0494,-0.0495 -0.11186,-0.0749 -0.180944,-0.07295 -0.06908,0.002 -0.143724,0.02985 -0.210923,0.08885 z m -6.8207142,-0.0849 -0.2862877,0.134871 c 0.0455,0.0954 0.072499,0.200292 0.076499,0.311613 l 0.5518956,0.689884 0.3973966,-0.397393 z m 2.757947,0.001 -0.7410338,0.738974 0.3973869,0.397393 0.7549835,-0.944126 z m -6.9349227,0.209801 c -0.1511587,-10e-6 -0.2650978,0.119111 -0.2650978,0.264062 v 1.323447 h 0.2635479 c 0.4351764,0 0.7947735,0.351703 0.7947735,0.792715 0,0.142591 -0.0367,0.274232 -0.1023193,0.389642 0.2216983,0.139991 0.3669071,0.385242 0.3669071,0.668704 0,0.204871 -0.075899,0.389072 -0.2025683,0.529683 0.1268688,0.140041 0.2025683,0.323682 0.2025683,0.528653 0,0.441013 -0.3596071,0.795305 -0.7947835,0.795305 H 1.8524543 l 5.213e-4,0.265101 c -2.911e-4,0.151161 0.1237589,0.263552 0.2645778,0.263552 h 3.173424 c 0.1511485,0 0.2661279,-0.119701 0.2661279,-0.263552 v -5.29325 c 0,-0.151151 -0.1149794,-0.263552 -0.2661279,-0.263552 H 5.0274281 v 0.529173 C 5.026846,11.259019 4.9079191,11.37701 4.7618103,11.37645 H 2.6467178 C 2.500599,11.377009 2.38169,11.259018 2.3811,11.112897 V 10.583214 Z M 7.5182076,11.376969 7.2556998,11.63948 7.6747862,12.058583 8.0964627,11.645171 7.828785,11.376969 Z m -1.4319382,0.289382 v 4.473145 h 0.6826444 l -0.077999,-0.078 c -0.0591,-0.0595 -0.086499,-0.143441 -0.073899,-0.226342 l 0.496086,-3.58791 -0.230478,-0.233581 -0.080099,0.0801 c -0.1118392,0.110381 -0.2947476,0.0996 -0.3927469,-0.0233 z m 1.0733112,4.116053 0.5131456,0.511603 0.512626,-0.511603 -0.4423466,-3.096468 c -0.0494,0.0149 -0.1009491,0.0148 -0.1555485,-0.0041 z M 1.8529743,12.699907 c -0.1511687,0 -0.2656178,0.11969 -0.2656178,0.26355 0,0.143871 0.1144491,0.265623 0.2656178,0.265623 h 0.2630279 c 0.1511687,0 0.2656178,-0.121762 0.2656178,-0.265623 0,-0.14387 -0.1144491,-0.26355 -0.2656178,-0.26355 z m -5.2e-4,1.058848 c -0.1511087,9e-4 -0.2650978,0.11972 -0.2650978,0.263041 0,0.143861 0.1144491,0.265612 0.2656178,0.265612 H 2.38058 c 0.1511687,0 0.2656178,-0.121751 0.2656178,-0.265612 0,-0.143871 -0.1144491,-0.263561 -0.2656178,-0.263548 -0.1761086,4e-6 -0.3511371,5.6e-4 -0.5281257,5.07e-4 z m -0.00103,1.058355 c -0.1500687,0.001 -0.2635478,0.11988 -0.2635478,0.263031 0,0.143871 0.1144391,0.265621 0.2656078,0.265621 H 2.3811 c 0.1511688,0 0.2656178,-0.12175 0.2656178,-0.265621 0,-0.143322 -0.1134791,-0.262141 -0.2645878,-0.263031 h -0.5286457 -0.002 z" />
  </g>
</svg>
