<?xml version="1.0" encoding="iso-8859-1"?>
<!-- Generator: Adobe Illustrator 21.0.0, SVG Export Plug-In . SVG Version: 6.00 Build 0)  -->
<svg version="1.1" id="Layer_1" xmlns="http://www.w3.org/2000/svg" xmlns:xlink="http://www.w3.org/1999/xlink" x="0px" y="0px"
	 viewBox="0 0 24 24" enable-background="new 0 0 24 24" xml:space="preserve">
<g>
	<circle fill="#303C42" cx="8.5" cy="13" r="1"/>
	<circle fill="#303C42" cx="15.5" cy="13" r="1"/>
	<path fill="#303C42" d="M20,12.21521V5.5C20,2.5883789,14.7148438,1,12,1S4,2.5883789,4,5.5v6.71521
		C3.1183472,12.7919922,3,13.7772827,3,14.5c0,0.9575195,0.8886719,3.1035156,2.1503906,3.4516602
		c0.0126953,0.0317383,0.0253906,0.0649414,0.0400391,0.0996094C5.7353516,19.4047852,7.1826172,23,12,23
		s6.2646484-3.5952148,6.8095703-4.9487305c0.0146484-0.034668,0.0273438-0.0678711,0.0400391-0.0996094
		C20.1113281,17.6035156,21,15.4575195,21,14.5C21,13.7772827,20.8816528,12.7919922,20,12.21521z M18.5,17
		c-0.1923828,0-0.3671875,0.1098633-0.4501953,0.2827148c-0.046875,0.0961914-0.1015625,0.2304688-0.1669922,0.3950195
		C17.3613281,18.9711914,16.1416016,22,12,22s-5.3613281-3.0288086-5.8828125-4.3222656
		c-0.0654297-0.1645508-0.1201172-0.2988281-0.1669922-0.3950195C5.8671875,17.1098633,5.6923828,17,5.5,17
		C4.8720703,17,4,15.2641602,4,14.5c0-1.0708008,0.3408203-1.3759766,0.7099609-1.5458984
		c0.046814-0.0216675,0.083313-0.0549316,0.1196899-0.0878296c0.006958-0.0062256,0.0172119-0.0061035,0.0238647-0.0127563
		c0.0026855-0.0026855,0.0115967-0.0122681,0.0152588-0.0159912c0.0005493-0.0005493,0.0010986-0.0010376,0.0010986-0.0010376
		C5.0285034,12.6754761,6,11.6435547,6,10.5c0-1.1875,0.5820313-4,1.5-4c0.4228516,0,0.7626953,0.3276367,1.2841797,0.8623047
		C9.4951172,8.0917969,10.3798828,9,12,9c1.5878906,0,2.4677734-0.7226563,3.1748047-1.3032227
		C15.6494141,7.3076172,16.0244141,7,16.5,7c0.9746094,0,1.5,2.484375,1.5,3.5c0,1.1438599,0.9721069,2.1760864,1.1298218,2.3361206
		c0.0003662,0.0004883,0.0008545,0.0008545,0.0008545,0.0008545c0.0040283,0.0041504,0.0130615,0.0137939,0.0158081,0.0165405
		c0.0015869,0.0015869,0.00354-0.0022583,0.005188-0.0009766c0.0401001,0.0397949,0.0842285,0.0765381,0.1383667,0.1015625
		C19.6591797,13.1240234,20,13.4291992,20,14.5C20,15.2641602,19.1279297,17,18.5,17z"/>
</g>
</svg>
