<?xml version="1.0" encoding="utf-8"?>
<!-- Generator: Adobe Illustrator 23.0.3, SVG Export Plug-In . SVG Version: 6.00 Build 0)  -->
<svg version="1.1" id="Icons" xmlns="http://www.w3.org/2000/svg" xmlns:xlink="http://www.w3.org/1999/xlink" x="0px" y="0px"
	 viewBox="0 0 32 32" style="enable-background:new 0 0 32 32;" xml:space="preserve">
<style type="text/css">
	.st0 { fill:none;stroke:#ffffff;stroke-width:2;stroke-linecap:round;stroke-linejoin:round;stroke-miterlimit:10; }
</style>
<path class="st0" d="M16,2C9,2,4.9,5.5,4.2,10.4c-0.7,4.6,0.4,9.2,3,12.9c1.3,1.9,2.9,3.4,4.8,4.6l0,0c2.5,1.5,5.5,1.5,8,0l0,0
	c1.9-1.2,3.5-2.7,4.8-4.6c2.6-3.7,3.7-8.4,3-12.9C27.1,5.5,23,2,16,2z"/>
<ellipse transform="matrix(0.7071 -0.7071 0.7071 0.7071 -9.8623 12.7961)" class="st0" cx="10.5" cy="18.3" rx="2" ry="3.7"/>
<ellipse transform="matrix(0.7071 -0.7071 0.7071 0.7071 -6.6405 20.5743)" class="st0" cx="21.5" cy="18.3" rx="3.7" ry="2"/>
</svg>
