<?xml version="1.0" encoding="UTF-8" standalone="no"?>
<svg xmlns="http://www.w3.org/2000/svg" viewBox="0 5 64 64">
  <style type="text/css">
    .st0 { fill:#ffffff;stroke-width:2;stroke-linecap:round;stroke-linejoin:round;stroke-miterlimit:10; }
  </style>
  <g  class="st0">
    <path d="M60.78,26.55A6.22,6.22,0,0,0,55.71,24H42.32L44,11.6a2.06,2.06,0,0,0,0-.35A4.41,4.41,0,0,0,39.62,7h-4a4.43,4.43,0,0,0-4.12,2.8l-7.34,15H22a4.8,4.8,0,0,0-4.77-4.46H6.81A4.81,4.81,0,0,0,2,25.16v27A4.81,4.81,0,0,0,6.81,57H17.22a4.8,4.8,0,0,0,4.28-2.67l2.47,2a2,2,0,0,0,1.26.45H46.37A9.71,9.71,0,0,0,55.68,50l6-17.84A6.22,6.22,0,0,0,60.78,26.55ZM18,52.19a.81.81,0,0,1-.81.81H6.81A.81.81,0,0,1,6,52.19v-27a.81.81,0,0,1,.81-.81H17.22a.81.81,0,0,1,.81.81v27ZM57.91,30.9l-6,17.84a5.75,5.75,0,0,1-5.51,4.05H25.95L22,49.6V28.81h3.33a2,2,0,0,0,1.8-1.12l7.93-16.23a2.11,2.11,0,0,0,.08-.2.42.42,0,0,1,.4-.28h4a.42.42,0,0,1,.4.3L38,25.71A2,2,0,0,0,40,28H55.71a2.28,2.28,0,0,1,2.19,2.92Z"/>
    <circle cx="11.57" cy="46.98" r="3.55"/>
  </g>
</svg>
