<?xml version="1.0" encoding="UTF-8"?>
<svg xmlns="http://www.w3.org/2000/svg" viewBox="12 42 40 16">
  <g stroke="none" fill="#ffffff">
    <path d="M26,45v6c0,0.379,0.214,0.725,0.553,0.895L28,52.618V61c0,0.552,0.448,1,1,1h6c0.552,0,1-0.448,1-1v-8.382l1.447-0.724
	    C37.786,51.725,38,51.379,38,51v-6c0-2-1.188-3.717-2.89-4.516C35.658,39.799,36,38.943,36,38c0-2.206-1.794-4-4-4s-4,1.794-4,4
	    c0,0.943,0.342,1.799,0.89,2.484C27.188,41.283,26,43,26,45z M32,36c1.103,0,2,0.897,2,2s-0.897,2-2,2s-2-0.897-2-2S30.897,36,32,36
	    z M28,45c0-1.654,1.346-3,3-3h2c1.654,0,3,1.346,3,3v5.382l-1.447,0.724C34.214,51.275,34,51.621,34,52v8h-4v-8
	    c0-0.379-0.214-0.725-0.553-0.895L28,50.382V45z"/>
    <path d="M40,45v6c0,0.379,0.214,0.725,0.553,0.895L42,52.618V61c0,0.552,0.448,1,1,1h6c0.552,0,1-0.448,1-1v-8.382l1.447-0.724
	    C51.786,51.725,52,51.379,52,51v-6c0-2-1.188-3.717-2.89-4.516C49.658,39.799,50,38.943,50,38c0-2.206-1.794-4-4-4s-4,1.794-4,4
	    c0,0.943,0.342,1.799,0.89,2.484C41.188,41.283,40,43,40,45z M46,36c1.103,0,2,0.897,2,2s-0.897,2-2,2s-2-0.897-2-2S44.897,36,46,36
	    z M42,45c0-1.654,1.346-3,3-3h2c1.654,0,3,1.346,3,3v5.382l-1.447,0.724C48.214,51.275,48,51.621,48,52v8h-4v-8
	    c0-0.379-0.214-0.725-0.553-0.895L42,50.382V45z"/>
    <path d="M12,45v6c0,0.379,0.214,0.725,0.553,0.895L14,52.618V61c0,0.552,0.448,1,1,1h6c0.552,0,1-0.448,1-1v-8.382l1.447-0.724
	    C23.786,51.725,24,51.379,24,51v-6c0-2-1.188-3.717-2.89-4.516C21.658,39.799,22,38.943,22,38c0-2.206-1.794-4-4-4s-4,1.794-4,4
	    c0,0.943,0.342,1.799,0.89,2.484C13.188,41.283,12,43,12,45z M18,36c1.103,0,2,0.897,2,2s-0.897,2-2,2s-2-0.897-2-2S16.897,36,18,36
	    z M14,45c0-1.654,1.346-3,3-3h2c1.654,0,3,1.346,3,3v5.382l-1.447,0.724C20.214,51.275,20,51.621,20,52v8h-4v-8
	    c0-0.379-0.214-0.725-0.553-0.895L14,50.382V45z"/>
	</g>
</svg>
